<svg id="S_copy_2_Image" data-name="S copy 2 Image" xmlns="http://www.w3.org/2000/svg" viewBox="0 0 129.24 123.77"><defs><style>.cls-1{fill:#fff;}</style></defs><title>blacklogo</title><path class="cls-1" d="M135.64,133.94H43.48q0-61.88,0-123.77H172.72q0,61.88,0,123.77H141.11a6,6,0,0,1,.62-.17c1.24-.2,2.5-.32,3.72-.61,1.48-.35,2.93-.81,4.37-1.31a24.68,24.68,0,0,0,5-2.45,24.41,24.41,0,0,0,6-5.11,22.13,22.13,0,0,0,3.13-5,24,24,0,0,0,1.87-6.28,19.91,19.91,0,0,0-1.2-10.45,24.27,24.27,0,0,0-4.37-7,34.75,34.75,0,0,0-11-8.09c-1.69-.83-3.38-1.66-5-2.56a9.36,9.36,0,0,1-3.23-2.75,3.86,3.86,0,0,1,0-4.66,4.66,4.66,0,0,1,4.44-1.67,12.62,12.62,0,0,1,2.7.7,32.9,32.9,0,0,1,6.09,3,65.59,65.59,0,0,1,8.53,6.28,3.39,3.39,0,0,0,2.46.91,2.45,2.45,0,0,0,2.2-1.33c.71-1.37,1.38-2.76,2-4.16,1-2.21,2.07-4.43,3.09-6.64a2.46,2.46,0,0,0,.25-.67,3.14,3.14,0,0,0-.89-2.76,45.91,45.91,0,0,0-4.95-4.38,45.28,45.28,0,0,0-8.19-5c-1.85-.87-3.73-1.68-5.65-2.39S149,58.05,147,57.5a28.1,28.1,0,0,0-7.15-1,24.72,24.72,0,0,0-5.15.46c-.71.14-1.4.31-2.11.47-.23.05-.38,0-.35-.27s.07-.69.09-1a17.07,17.07,0,0,0-.38-5.74,12.14,12.14,0,0,0-1.24-2.9,12.26,12.26,0,0,0-4-4A21.12,21.12,0,0,0,121,40.91a22.28,22.28,0,0,0-3.93-.79c-1-.09-2-.12-3-.18a1.61,1.61,0,0,1-.31-.08l0-.09.13-.07.32-.16A15.89,15.89,0,0,0,119,36.66a11.36,11.36,0,0,0,3.16-4.48,14.78,14.78,0,0,0,.9-5.77,16.71,16.71,0,0,0-.37-3,13.65,13.65,0,0,0-3.8-6.85,18.7,18.7,0,0,0-5-3.45c-.5-.25-1-.52-1.52-.73-.7-.28-1.41-.53-2.14-.73-1-.3-2.08-.57-3.13-.8-.77-.17-1.55-.27-2.34-.36a20.25,20.25,0,0,0-2.39-.19,40.35,40.35,0,0,0-5.51.33c-.83.12-1.66.22-2.48.36s-1.6.29-2.39.46-1.3.31-2,.47l-2,.53c-.54.14-1.09.24-1.64.39-.81.22-1.6.47-2.41.7-1,.28-2,.55-3,.85s-2.26.7-3.39,1.06-2,.62-3,1c-1.9.66-3.8,1.33-5.68,2s-3.9,1.48-5.82,2.28c-2.32,1-4.63,2-6.93,3-1.56.69-3.12,1.42-4.66,2.16-1.38.67-2.74,1.38-4.11,2.07a7.78,7.78,0,0,0-2.93,2.32,3.06,3.06,0,0,0-.59,2.9c.74,2.27,1.42,4.56,2.17,6.82.9,2.72,1.82,5.43,2.79,8.13s1.95,5.39,3,8.05c1.45,3.66,3,7.29,4.46,10.92,1,2.32,2,4.63,3,6.93s1.94,4.33,2.94,6.49c1.14,2.45,2.31,4.88,3.46,7.31a3.49,3.49,0,0,0,1.55,1.9,3.39,3.39,0,0,0,3,0c2-.81,4-1.54,5.94-2.27,1-.39,2.11-.71,3.16-1.08s1.84-.69,2.76-1,2-.67,3-1l2.8-.91c.57-.18,1.15-.33,1.72-.51.75-.23,1.5-.49,2.25-.72s1.34-.38,2-.58c.84-.25,1.67-.52,2.51-.76,1.14-.32,2.29-.6,3.43-.92.67-.18,1.32-.41,2-.59,1.24-.32,2.48-.61,3.72-.92,1.42-.36,2.85-.73,4.26-1.12s2.52-.75,3.78-1.12a2.2,2.2,0,0,1,.37,0,2.45,2.45,0,0,1,0,.38c-.14.95-.34,1.89-.41,2.85a20.41,20.41,0,0,0,.72,7.37,22,22,0,0,0,2.1,4.91,24.5,24.5,0,0,0,5.47,6.39,37.61,37.61,0,0,0,7.85,5,37.07,37.07,0,0,1,5,2.72,9.71,9.71,0,0,1,3.09,3.1,3.61,3.61,0,0,1-1.09,4.81,5.08,5.08,0,0,1-2.81.75,16.65,16.65,0,0,1-4.44-.64,12.08,12.08,0,0,1-3.24-1.25,21.41,21.41,0,0,1-4.8-4.14c-1.94-2.12-3.83-4.3-5.77-6.43a6.35,6.35,0,0,0-1.39-1.17,3,3,0,0,0-3.84.85c-.73,1.14-1.52,2.24-2.29,3.36l-4.73,7a2.73,2.73,0,0,0-.46,2.09,3.47,3.47,0,0,0,.83,1.65c.82.94,1.63,1.89,2.47,2.81a50.93,50.93,0,0,0,14,10.94,38.71,38.71,0,0,0,7.44,2.93,41,41,0,0,0,7.27,1.36A4.49,4.49,0,0,1,135.64,133.94Z" transform="translate(-43.48 -10.18)"/><path d="M135.64,133.94a4.49,4.49,0,0,0-.69-.17,41,41,0,0,1-7.27-1.36,38.71,38.71,0,0,1-7.44-2.93,50.93,50.93,0,0,1-14-10.94c-.85-.91-1.65-1.87-2.47-2.81a3.47,3.47,0,0,1-.83-1.65,2.73,2.73,0,0,1,.46-2.09l4.73-7c.76-1.12,1.56-2.22,2.29-3.36a3,3,0,0,1,3.84-.85,6.35,6.35,0,0,1,1.39,1.17c1.94,2.13,3.82,4.31,5.77,6.43a21.41,21.41,0,0,0,4.8,4.14,12.08,12.08,0,0,0,3.24,1.25,16.65,16.65,0,0,0,4.44.64,5.08,5.08,0,0,0,2.81-.75,3.61,3.61,0,0,0,1.09-4.81,9.71,9.71,0,0,0-3.09-3.1,37.07,37.07,0,0,0-5-2.72,37.61,37.61,0,0,1-7.85-5,24.5,24.5,0,0,1-5.47-6.39,22,22,0,0,1-2.1-4.91,20.41,20.41,0,0,1-.72-7.37c.07-1,.28-1.9.41-2.85a2.45,2.45,0,0,0,0-.38,2.2,2.2,0,0,0-.37,0c-1.26.37-2.52.77-3.78,1.12s-2.84.76-4.26,1.12c-1.24.32-2.49.6-3.72.92-.67.17-1.33.41-2,.59-1.14.31-2.29.6-3.43.92-.84.23-1.67.51-2.51.76-.67.2-1.34.37-2,.58s-1.5.49-2.25.72c-.57.18-1.15.33-1.72.51l-2.8.91c-1,.33-2,.65-3,1s-1.84.69-2.76,1-2.11.69-3.16,1.08c-2,.74-4,1.46-5.94,2.27a3.39,3.39,0,0,1-3,0,3.49,3.49,0,0,1-1.55-1.9c-1.15-2.44-2.32-4.87-3.46-7.31q-1.5-3.23-2.94-6.49c-1-2.3-2-4.6-3-6.93-1.51-3.63-3-7.26-4.46-10.92-1.05-2.66-2-5.36-3-8.05S46.92,42.72,46,40c-.75-2.26-1.43-4.55-2.17-6.82a3.06,3.06,0,0,1,.59-2.9A7.78,7.78,0,0,1,47.37,28c1.37-.69,2.73-1.41,4.11-2.07,1.54-.74,3.09-1.47,4.66-2.16,2.3-1,4.61-2,6.93-3,1.93-.8,3.87-1.55,5.82-2.28s3.78-1.37,5.68-2c1-.35,2-.65,3-1s2.25-.72,3.39-1.06,2-.56,3-.85c.8-.23,1.6-.48,2.41-.7.54-.15,1.09-.26,1.64-.39l2-.53c.65-.16,1.3-.33,2-.47s1.59-.33,2.39-.46,1.66-.24,2.48-.36a40.35,40.35,0,0,1,5.51-.33,20.25,20.25,0,0,1,2.39.19c.78.09,1.57.19,2.34.36,1.05.23,2.09.5,3.13.8.72.21,1.44.46,2.14.73.52.21,1,.48,1.52.73a18.7,18.7,0,0,1,5,3.45,13.65,13.65,0,0,1,3.8,6.85,16.71,16.71,0,0,1,.37,3,14.78,14.78,0,0,1-.9,5.77A11.36,11.36,0,0,1,119,36.66a15.89,15.89,0,0,1-4.78,2.88l-.32.16-.13.07,0,.09a1.61,1.61,0,0,0,.31.08c1,.06,2,.09,3,.18a22.28,22.28,0,0,1,3.93.79,21.12,21.12,0,0,1,5.71,2.56,12.26,12.26,0,0,1,4,4,12.14,12.14,0,0,1,1.24,2.9,17.07,17.07,0,0,1,.38,5.74c0,.35,0,.69-.09,1s.12.32.35.27c.7-.16,1.4-.33,2.11-.47a24.72,24.72,0,0,1,5.15-.46,28.1,28.1,0,0,1,7.15,1c2,.55,4,1.16,5.92,1.87s3.8,1.51,5.65,2.39a45.28,45.28,0,0,1,8.19,5,45.91,45.91,0,0,1,4.95,4.38,3.14,3.14,0,0,1,.89,2.76,2.46,2.46,0,0,1-.25.67c-1,2.22-2.05,4.43-3.09,6.64-.66,1.4-1.32,2.79-2,4.16a2.45,2.45,0,0,1-2.2,1.33,3.39,3.39,0,0,1-2.46-.91,65.59,65.59,0,0,0-8.53-6.28,32.9,32.9,0,0,0-6.09-3,12.62,12.62,0,0,0-2.7-.7,4.66,4.66,0,0,0-4.44,1.67,3.86,3.86,0,0,0,0,4.66,9.36,9.36,0,0,0,3.23,2.75c1.65.9,3.33,1.73,5,2.56a34.75,34.75,0,0,1,11,8.09,24.27,24.27,0,0,1,4.37,7,19.91,19.91,0,0,1,1.2,10.45,24,24,0,0,1-1.87,6.28,22.13,22.13,0,0,1-3.13,5,24.41,24.41,0,0,1-6,5.11,24.68,24.68,0,0,1-5,2.45c-1.43.5-2.89,1-4.37,1.31-1.22.29-2.48.41-3.72.61a6,6,0,0,0-.62.17ZM95.07,53c-.88.15-1.78.23-2.65.46-1.26.33-2.49.76-3.74,1.14-.81.25-1.64.46-2.45.7-.36.11-.72.26-1.07.4s-.27.25-.2.5c.19.63.36,1.26.53,1.9q.88,3.34,1.75,6.67c.08.31.23.35.53.25,1.18-.39,2.37-.76,3.55-1.13.94-.29,1.87-.6,2.82-.84a10.32,10.32,0,0,0,4.18-2,4.48,4.48,0,0,0,1.77-5,3.62,3.62,0,0,0-2.33-2.59A8.17,8.17,0,0,0,95.07,53ZM86.32,28.3c-.53.07-1.07.12-1.59.23s-1.07.24-1.6.39c-.69.19-1.38.4-2.06.61l-2.78.86a.29.29,0,0,0-.22.41c0,.09.07.18.09.27l1.56,6.32q.26,1,.53,2.09c.11.43.22.47.63.34l2.93-.94c1.16-.38,2.32-.74,3.47-1.16a7.47,7.47,0,0,0,2.79-1.86,4.43,4.43,0,0,0,1.41-3.06,4,4,0,0,0-1.84-3.68A5.87,5.87,0,0,0,86.32,28.3Z" transform="translate(-43.48 -10.18)"/><path class="cls-1" d="M95.07,53a8.17,8.17,0,0,1,2.69.45A3.62,3.62,0,0,1,100.09,56a4.48,4.48,0,0,1-1.77,5,10.32,10.32,0,0,1-4.18,2c-1,.24-1.88.55-2.82.84-1.19.37-2.37.74-3.55,1.13-.3.1-.44.06-.53-.25q-.87-3.34-1.75-6.67c-.17-.64-.34-1.27-.53-1.9-.07-.24,0-.4.2-.5s.71-.29,1.07-.4c.81-.25,1.64-.46,2.45-.7,1.25-.38,2.48-.81,3.74-1.14C93.28,53.22,94.18,53.14,95.07,53Z" transform="translate(-43.48 -10.18)"/><path class="cls-1" d="M86.32,28.3a5.87,5.87,0,0,1,3.31.83,4,4,0,0,1,1.84,3.68,4.43,4.43,0,0,1-1.41,3.06,7.47,7.47,0,0,1-2.79,1.86c-1.14.42-2.31.78-3.47,1.16l-2.93.94c-.4.13-.51.09-.63-.34q-.27-1-.53-2.09l-1.56-6.32c0-.09-.06-.18-.09-.27a.29.29,0,0,1,.22-.41l2.78-.86c.69-.21,1.37-.42,2.06-.61.53-.15,1.06-.29,1.6-.39S85.79,28.37,86.32,28.3Z" transform="translate(-43.48 -10.18)"/></svg>